<svg xmlns="http://www.w3.org/2000/svg" version="1.1" xmlns:xlink="http://www.w3.org/1999/xlink" xmlns:svgjs="http://svgjs.dev/svgjs" viewBox="0 0 800 800"><defs><linearGradient x1="50%" y1="0%" x2="50%" y2="100%" id="ffflurry-grad" gradientTransform="rotate(270)"><stop stop-color="hsl(238, 4%, 94%)" stop-opacity="1" offset="0%"></stop><stop stop-color="hsl(162, 100%, 58%)" stop-opacity="1" offset="45%"></stop><stop stop-color="hsl(270, 73%, 53%)" stop-opacity="1" offset="100%"></stop></linearGradient></defs><rect width="100%" height="100%" fill="hsl(238, 4%, 94%)"></rect><g fill="url(#ffflurry-grad)"><rect width="164" height="5" x="384" y="624.5" rx="2.5" transform="rotate(45, 466, 627)" opacity="0.19"></rect><rect width="311" height="5" x="51.5" y="101.5" rx="2.5" transform="rotate(45, 207, 104)" opacity="0.68"></rect><rect width="285" height="5" x="145.5" y="497.5" rx="2.5" transform="rotate(45, 288, 500)" opacity="0.86"></rect><rect width="124" height="5" x="100" y="332.5" rx="2.5" transform="rotate(45, 162, 335)" opacity="0.51"></rect><rect width="313" height="5" x="347.5" y="498.5" rx="2.5" transform="rotate(45, 504, 501)" opacity="0.31"></rect><rect width="185" height="5" x="23.5" y="279.5" rx="2.5" transform="rotate(45, 116, 282)" opacity="0.54"></rect><rect width="115" height="5" x="-41.5" y="666.5" rx="2.5" transform="rotate(45, 16, 669)" opacity="0.59"></rect><rect width="66" height="5" x="363" y="37.5" rx="2.5" transform="rotate(45, 396, 40)" opacity="0.66"></rect><rect width="292" height="5" x="109" y="554.5" rx="2.5" transform="rotate(45, 255, 557)" opacity="0.65"></rect><rect width="35" height="5" x="347.5" y="707.5" rx="2.5" transform="rotate(45, 365, 710)" opacity="0.88"></rect><rect width="76" height="5" x="725" y="329.5" rx="2.5" transform="rotate(45, 763, 332)" opacity="0.22"></rect><rect width="287" height="5" x="486.5" y="72.5" rx="2.5" transform="rotate(45, 630, 75)" opacity="0.61"></rect><rect width="105" height="5" x="661.5" y="772.5" rx="2.5" transform="rotate(45, 714, 775)" opacity="0.54"></rect><rect width="116" height="5" x="297" y="107.5" rx="2.5" transform="rotate(45, 355, 110)" opacity="0.84"></rect><rect width="78" height="5" x="548" y="573.5" rx="2.5" transform="rotate(45, 587, 576)" opacity="0.42"></rect><rect width="225" height="5" x="117.5" y="249.5" rx="2.5" transform="rotate(45, 230, 252)" opacity="0.84"></rect><rect width="144" height="5" x="180" y="186.5" rx="2.5" transform="rotate(45, 252, 189)" opacity="0.28"></rect><rect width="102" height="5" x="711" y="409.5" rx="2.5" transform="rotate(45, 762, 412)" opacity="0.58"></rect><rect width="127" height="5" x="578.5" y="322.5" rx="2.5" transform="rotate(45, 642, 325)" opacity="0.54"></rect><rect width="44" height="5" x="257" y="448.5" rx="2.5" transform="rotate(45, 279, 451)" opacity="0.37"></rect><rect width="200" height="5" x="384" y="205.5" rx="2.5" transform="rotate(45, 484, 208)" opacity="0.95"></rect><rect width="249" height="5" x="-5.5" y="211.5" rx="2.5" transform="rotate(45, 119, 214)" opacity="0.92"></rect><rect width="240" height="5" x="1" y="615.5" rx="2.5" transform="rotate(45, 121, 618)" opacity="0.24"></rect><rect width="341" height="5" x="-145.5" y="576.5" rx="2.5" transform="rotate(45, 25, 579)" opacity="0.93"></rect><rect width="190" height="5" x="79" y="429.5" rx="2.5" transform="rotate(45, 174, 432)" opacity="0.12"></rect><rect width="37" height="5" x="0.5" y="501.5" rx="2.5" transform="rotate(45, 19, 504)" opacity="0.08"></rect><rect width="361" height="5" x="352.5" y="292.5" rx="2.5" transform="rotate(45, 533, 295)" opacity="0.29"></rect><rect width="157" height="5" x="-58.5" y="102.5" rx="2.5" transform="rotate(45, 20, 105)" opacity="0.27"></rect><rect width="151" height="5" x="-53.5" y="270.5" rx="2.5" transform="rotate(45, 22, 273)" opacity="0.99"></rect><rect width="102" height="5" x="560" y="183.5" rx="2.5" transform="rotate(45, 611, 186)" opacity="0.07"></rect><rect width="172" height="5" x="44" y="44.5" rx="2.5" transform="rotate(45, 130, 47)" opacity="0.26"></rect><rect width="295" height="5" x="169.5" y="547.5" rx="2.5" transform="rotate(45, 317, 550)" opacity="0.54"></rect><rect width="52" height="5" x="472" y="139.5" rx="2.5" transform="rotate(45, 498, 142)" opacity="0.40"></rect><rect width="221" height="5" x="481.5" y="286.5" rx="2.5" transform="rotate(45, 592, 289)" opacity="0.57"></rect><rect width="263" height="5" x="563.5" y="295.5" rx="2.5" transform="rotate(45, 695, 298)" opacity="0.57"></rect><rect width="67" height="5" x="738.5" y="41.5" rx="2.5" transform="rotate(45, 772, 44)" opacity="0.09"></rect><rect width="55" height="5" x="10.5" y="27.5" rx="2.5" transform="rotate(45, 38, 30)" opacity="0.26"></rect><rect width="131" height="5" x="-29.5" y="722.5" rx="2.5" transform="rotate(45, 36, 725)" opacity="0.21"></rect><rect width="116" height="5" x="216" y="114.5" rx="2.5" transform="rotate(45, 274, 117)" opacity="0.75"></rect><rect width="80" height="5" x="521" y="82.5" rx="2.5" transform="rotate(45, 561, 85)" opacity="0.11"></rect><rect width="296" height="5" x="-129" y="346.5" rx="2.5" transform="rotate(45, 19, 349)" opacity="0.69"></rect><rect width="357" height="5" x="273.5" y="468.5" rx="2.5" transform="rotate(45, 452, 471)" opacity="0.39"></rect><rect width="283" height="5" x="-74.5" y="255.5" rx="2.5" transform="rotate(45, 67, 258)" opacity="0.88"></rect><rect width="291" height="5" x="302.5" y="699.5" rx="2.5" transform="rotate(45, 448, 702)" opacity="0.17"></rect><rect width="245" height="5" x="-6.5" y="138.5" rx="2.5" transform="rotate(45, 116, 141)" opacity="0.76"></rect><rect width="236" height="5" x="-23" y="429.5" rx="2.5" transform="rotate(45, 95, 432)" opacity="0.92"></rect><rect width="200" height="5" x="363" y="23.5" rx="2.5" transform="rotate(45, 463, 26)" opacity="0.68"></rect><rect width="92" height="5" x="489" y="635.5" rx="2.5" transform="rotate(45, 535, 638)" opacity="0.62"></rect><rect width="443" height="5" x="87.5" y="272.5" rx="2.5" transform="rotate(45, 309, 275)" opacity="0.38"></rect><rect width="301" height="5" x="510.5" y="614.5" rx="2.5" transform="rotate(45, 661, 617)" opacity="0.59"></rect><rect width="342" height="5" x="148" y="191.5" rx="2.5" transform="rotate(45, 319, 194)" opacity="0.60"></rect><rect width="220" height="5" x="167" y="697.5" rx="2.5" transform="rotate(45, 277, 700)" opacity="0.66"></rect><rect width="80" height="5" x="22" y="674.5" rx="2.5" transform="rotate(45, 62, 677)" opacity="0.70"></rect><rect width="41" height="5" x="250.5" y="327.5" rx="2.5" transform="rotate(45, 271, 330)" opacity="0.45"></rect><rect width="322" height="5" x="252" y="411.5" rx="2.5" transform="rotate(45, 413, 414)" opacity="0.75"></rect><rect width="239" height="5" x="449.5" y="353.5" rx="2.5" transform="rotate(45, 569, 356)" opacity="0.71"></rect><rect width="37" height="5" x="144.5" y="247.5" rx="2.5" transform="rotate(45, 163, 250)" opacity="0.49"></rect><rect width="117" height="5" x="602.5" y="250.5" rx="2.5" transform="rotate(45, 661, 253)" opacity="0.87"></rect><rect width="108" height="5" x="104" y="513.5" rx="2.5" transform="rotate(45, 158, 516)" opacity="0.88"></rect><rect width="225" height="5" x="111.5" y="434.5" rx="2.5" transform="rotate(45, 224, 437)" opacity="0.92"></rect><rect width="307" height="5" x="-98.5" y="388.5" rx="2.5" transform="rotate(45, 55, 391)" opacity="0.12"></rect><rect width="227" height="5" x="289.5" y="496.5" rx="2.5" transform="rotate(45, 403, 499)" opacity="0.15"></rect><rect width="310" height="5" x="76" y="640.5" rx="2.5" transform="rotate(45, 231, 643)" opacity="0.42"></rect><rect width="240" height="5" x="151" y="387.5" rx="2.5" transform="rotate(45, 271, 390)" opacity="0.93"></rect><rect width="179" height="5" x="-2.5" y="173.5" rx="2.5" transform="rotate(45, 87, 176)" opacity="0.48"></rect><rect width="283" height="5" x="321.5" y="752.5" rx="2.5" transform="rotate(45, 463, 755)" opacity="0.85"></rect><rect width="209" height="5" x="115.5" y="508.5" rx="2.5" transform="rotate(45, 220, 511)" opacity="0.47"></rect><rect width="321" height="5" x="462.5" y="771.5" rx="2.5" transform="rotate(45, 623, 774)" opacity="0.66"></rect><rect width="358" height="5" x="195" y="636.5" rx="2.5" transform="rotate(45, 374, 639)" opacity="0.53"></rect><rect width="89" height="5" x="629.5" y="192.5" rx="2.5" transform="rotate(45, 674, 195)" opacity="0.46"></rect><rect width="63" height="5" x="587.5" y="380.5" rx="2.5" transform="rotate(45, 619, 383)" opacity="0.15"></rect><rect width="37" height="5" x="139.5" y="113.5" rx="2.5" transform="rotate(45, 158, 116)" opacity="0.39"></rect><rect width="299" height="5" x="480.5" y="20.5" rx="2.5" transform="rotate(45, 630, 23)" opacity="0.98"></rect><rect width="386" height="5" x="-15" y="685.5" rx="2.5" transform="rotate(45, 178, 688)" opacity="0.69"></rect><rect width="269" height="5" x="633.5" y="118.5" rx="2.5" transform="rotate(45, 768, 121)" opacity="0.14"></rect><rect width="146" height="5" x="-45" y="771.5" rx="2.5" transform="rotate(45, 28, 774)" opacity="0.66"></rect><rect width="353" height="5" x="574.5" y="484.5" rx="2.5" transform="rotate(45, 751, 487)" opacity="0.08"></rect><rect width="140" height="5" x="-1" y="327.5" rx="2.5" transform="rotate(45, 69, 330)" opacity="0.52"></rect><rect width="222" height="5" x="503" y="235.5" rx="2.5" transform="rotate(45, 614, 238)" opacity="0.97"></rect><rect width="163" height="5" x="473.5" y="228.5" rx="2.5" transform="rotate(45, 555, 231)" opacity="0.71"></rect><rect width="92" height="5" x="640" y="446.5" rx="2.5" transform="rotate(45, 686, 449)" opacity="0.48"></rect><rect width="328" height="5" x="306" y="261.5" rx="2.5" transform="rotate(45, 470, 264)" opacity="0.64"></rect><rect width="22" height="5" x="94" y="75.5" rx="2.5" transform="rotate(45, 105, 78)" opacity="0.37"></rect><rect width="312" height="5" x="-38" y="360.5" rx="2.5" transform="rotate(45, 118, 363)" opacity="0.26"></rect><rect width="126" height="5" x="705" y="732.5" rx="2.5" transform="rotate(45, 768, 735)" opacity="0.22"></rect><rect width="123" height="5" x="486.5" y="471.5" rx="2.5" transform="rotate(45, 548, 474)" opacity="0.18"></rect><rect width="209" height="5" x="16.5" y="545.5" rx="2.5" transform="rotate(45, 121, 548)" opacity="0.10"></rect><rect width="38" height="5" x="177" y="375.5" rx="2.5" transform="rotate(45, 196, 378)" opacity="0.86"></rect><rect width="130" height="5" x="123" y="584.5" rx="2.5" transform="rotate(45, 188, 587)" opacity="0.25"></rect><rect width="154" height="5" x="620" y="80.5" rx="2.5" transform="rotate(45, 697, 83)" opacity="0.19"></rect><rect width="37" height="5" x="166.5" y="473.5" rx="2.5" transform="rotate(45, 185, 476)" opacity="0.17"></rect><rect width="123" height="5" x="1.5" y="97.5" rx="2.5" transform="rotate(45, 63, 100)" opacity="0.38"></rect><rect width="285" height="5" x="48.5" y="31.5" rx="2.5" transform="rotate(45, 191, 34)" opacity="0.31"></rect><rect width="218" height="5" x="-56" y="621.5" rx="2.5" transform="rotate(45, 53, 624)" opacity="0.44"></rect><rect width="148" height="5" x="43" y="10.5" rx="2.5" transform="rotate(45, 117, 13)" opacity="0.87"></rect><rect width="365" height="5" x="145.5" y="763.5" rx="2.5" transform="rotate(45, 328, 766)" opacity="0.35"></rect><rect width="40" height="5" x="323" y="487.5" rx="2.5" transform="rotate(45, 343, 490)" opacity="0.11"></rect><rect width="403" height="5" x="42.5" y="764.5" rx="2.5" transform="rotate(45, 244, 767)" opacity="0.65"></rect><rect width="83" height="5" x="442.5" y="75.5" rx="2.5" transform="rotate(45, 484, 78)" opacity="0.92"></rect><rect width="175" height="5" x="296.5" y="249.5" rx="2.5" transform="rotate(45, 384, 252)" opacity="0.92"></rect><rect width="103" height="5" x="680.5" y="165.5" rx="2.5" transform="rotate(45, 732, 168)" opacity="0.62"></rect><rect width="291" height="5" x="277.5" y="315.5" rx="2.5" transform="rotate(45, 423, 318)" opacity="0.47"></rect><rect width="135" height="5" x="696.5" y="565.5" rx="2.5" transform="rotate(45, 764, 568)" opacity="0.83"></rect><rect width="177" height="5" x="452.5" y="25.5" rx="2.5" transform="rotate(45, 541, 28)" opacity="0.83"></rect><rect width="28" height="5" x="400" y="773.5" rx="2.5" transform="rotate(45, 414, 776)" opacity="0.20"></rect><rect width="394" height="5" x="-12" y="180.5" rx="2.5" transform="rotate(45, 185, 183)" opacity="0.52"></rect><rect width="217" height="5" x="3.5" y="692.5" rx="2.5" transform="rotate(45, 112, 695)" opacity="0.89"></rect><rect width="318" height="5" x="39" y="300.5" rx="2.5" transform="rotate(45, 198, 303)" opacity="0.73"></rect><rect width="181" height="5" x="588.5" y="133.5" rx="2.5" transform="rotate(45, 679, 136)" opacity="0.89"></rect><rect width="54" height="5" x="228" y="36.5" rx="2.5" transform="rotate(45, 255, 39)" opacity="0.47"></rect><rect width="128" height="5" x="629" y="545.5" rx="2.5" transform="rotate(45, 693, 548)" opacity="0.11"></rect><rect width="125" height="5" x="308.5" y="534.5" rx="2.5" transform="rotate(45, 371, 537)" opacity="0.24"></rect><rect width="254" height="5" x="481" y="128.5" rx="2.5" transform="rotate(45, 608, 131)" opacity="0.10"></rect><rect width="250" height="5" x="425" y="164.5" rx="2.5" transform="rotate(45, 550, 167)" opacity="0.17"></rect><rect width="203" height="5" x="296.5" y="179.5" rx="2.5" transform="rotate(45, 398, 182)" opacity="0.38"></rect><rect width="340" height="5" x="544" y="25.5" rx="2.5" transform="rotate(45, 714, 28)" opacity="0.97"></rect><rect width="59" height="5" x="738.5" y="210.5" rx="2.5" transform="rotate(45, 768, 213)" opacity="0.39"></rect><rect width="49" height="5" x="719.5" y="646.5" rx="2.5" transform="rotate(45, 744, 649)" opacity="0.17"></rect><rect width="272" height="5" x="365" y="341.5" rx="2.5" transform="rotate(45, 501, 344)" opacity="0.26"></rect><rect width="440" height="5" x="293" y="565.5" rx="2.5" transform="rotate(45, 513, 568)" opacity="0.40"></rect><rect width="48" height="5" x="665" y="373.5" rx="2.5" transform="rotate(45, 689, 376)" opacity="0.76"></rect><rect width="253" height="5" x="307.5" y="120.5" rx="2.5" transform="rotate(45, 434, 123)" opacity="0.82"></rect><rect width="270" height="5" x="-49" y="759.5" rx="2.5" transform="rotate(45, 86, 762)" opacity="0.41"></rect><rect width="268" height="5" x="404" y="762.5" rx="2.5" transform="rotate(45, 538, 765)" opacity="0.35"></rect><rect width="157" height="5" x="601.5" y="708.5" rx="2.5" transform="rotate(45, 680, 711)" opacity="0.26"></rect><rect width="458" height="5" x="126" y="354.5" rx="2.5" transform="rotate(45, 355, 357)" opacity="0.59"></rect><rect width="228" height="5" x="332" y="551.5" rx="2.5" transform="rotate(45, 446, 554)" opacity="0.47"></rect><rect width="240" height="5" x="263" y="582.5" rx="2.5" transform="rotate(45, 383, 585)" opacity="0.55"></rect><rect width="369" height="5" x="403.5" y="504.5" rx="2.5" transform="rotate(45, 588, 507)" opacity="0.88"></rect><rect width="191" height="5" x="500.5" y="656.5" rx="2.5" transform="rotate(45, 596, 659)" opacity="0.54"></rect><rect width="272" height="5" x="472" y="713.5" rx="2.5" transform="rotate(45, 608, 716)" opacity="0.22"></rect><rect width="184" height="5" x="2" y="488.5" rx="2.5" transform="rotate(45, 94, 491)" opacity="0.18"></rect><rect width="65" height="5" x="100.5" y="773.5" rx="2.5" transform="rotate(45, 133, 776)" opacity="0.33"></rect><rect width="308" height="5" x="194" y="430.5" rx="2.5" transform="rotate(45, 348, 433)" opacity="0.44"></rect><rect width="162" height="5" x="239" y="35.5" rx="2.5" transform="rotate(45, 320, 38)" opacity="0.88"></rect><rect width="31" height="5" x="33.5" y="470.5" rx="2.5" transform="rotate(45, 49, 473)" opacity="0.63"></rect><rect width="126" height="5" x="242" y="615.5" rx="2.5" transform="rotate(45, 305, 618)" opacity="0.89"></rect><rect width="232" height="5" x="512" y="444.5" rx="2.5" transform="rotate(45, 628, 447)" opacity="0.93"></rect><rect width="144" height="5" x="451" y="417.5" rx="2.5" transform="rotate(45, 523, 420)" opacity="0.46"></rect><rect width="309" height="5" x="490.5" y="517.5" rx="2.5" transform="rotate(45, 645, 520)" opacity="0.92"></rect><rect width="162" height="5" x="433" y="700.5" rx="2.5" transform="rotate(45, 514, 703)" opacity="0.43"></rect><rect width="118" height="5" x="78" y="435.5" rx="2.5" transform="rotate(45, 137, 438)" opacity="0.32"></rect><rect width="39" height="5" x="399.5" y="663.5" rx="2.5" transform="rotate(45, 419, 666)" opacity="0.81"></rect><rect width="74" height="5" x="-11" y="428.5" rx="2.5" transform="rotate(45, 26, 431)" opacity="0.62"></rect><rect width="218" height="5" x="-43" y="542.5" rx="2.5" transform="rotate(45, 66, 545)" opacity="0.68"></rect><rect width="40" height="5" x="559" y="423.5" rx="2.5" transform="rotate(45, 579, 426)" opacity="0.41"></rect><rect width="238" height="5" x="-87" y="185.5" rx="2.5" transform="rotate(45, 32, 188)" opacity="0.17"></rect><rect width="316" height="5" x="587" y="259.5" rx="2.5" transform="rotate(45, 745, 262)" opacity="0.28"></rect><rect width="203" height="5" x="367.5" y="391.5" rx="2.5" transform="rotate(45, 469, 394)" opacity="0.31"></rect><rect width="139" height="5" x="108.5" y="752.5" rx="2.5" transform="rotate(45, 178, 755)" opacity="0.81"></rect></g></svg>